#!OML:ASF H:\MichaelJackson\Top Level 1\Subject 1\Session 1\male.ASF
:FULLY-SPECIFIED
:DEGREES
240
root 25.0798 16.2712 13.5668 -164.612 0.575679 -167.278
lowerback 0.415999 3.93421 8.43346
upperback -0.905063 5.6234 2.89284
thorax -0.674614 2.87162 -1.74037
lowerneck -11.0984 -0.580251 4.31966
upperneck 8.9086 -1.20667 -2.38856
head 4.43923 -0.596396 -1.5218
rclavicle -3.37996e-014 -2.19657e-014
rhumerus -32.6328 9.56449 -78.4427
rradius 46.4541
rwrist 32.936
rhand -31.3112 -19.689
rfingers 7.12502
rthumb -4.58365 -49.6194
lclavicle -3.37996e-014 -2.19657e-014
lhumerus -41.3434 -17.6191 90.1238
lradius 61.8242
lwrist 17.0606
lhand -17.409 5.95491
lfingers 7.12502
lthumb 8.84069 35.7497
rfemur -4.78789 -17.265 30.1635
rtibia 28.5059
rfoot -18.4267 -14.6659
rtoes -28.999
lfemur -63.1247 40.6828 -27.3954
ltibia 51.2925
lfoot -24.7926 34.6938
ltoes 31.9793
241
root 25.0697 16.2738 13.508 -165.137 -1.94698 -167.527
lowerback -0.0471011 4.18564 8.2723
upperback -1.0394 5.38952 2.84543
thorax -0.553329 2.52981 -1.6654
lowerneck -10.8095 -0.624955 4.48265
upperneck 8.98546 -1.26768 -2.5195
head 4.41116 -0.628179 -1.59147
rclavicle -2.28602e-014 1.07344e-014
rhumerus -33.5448 8.4649 -78.671
rradius 47.2767
rwrist 32.3451
rhand -31.6748 -19.6143
rfingers 7.12502
rthumb -4.9347 -49.5368
lclavicle -2.28602e-014 1.07344e-014
lhumerus -41.2847 -17.1771 89.4713
lradius 61.8111
lwrist 17.1694
lhand -17.5456 5.88889
lfingers 7.12502
lthumb 8.70886 35.6892
rfemur -3.98761 -17.1907 30.147
rtibia 28.3768
rfoot -17.6333 -14.5648
rtoes -31.0039
lfemur -63.3481 40.9028 -28.8219
ltibia 51.1239
lfoot -25.2043 34.5757
ltoes 31.5283
242
root 25.0529 16.2799 13.4452 -165.646 -4.53018 -167.789
lowerback -0.507773 4.08802 8.09676
upperback -1.16273 5.22798 2.79477
thorax -0.44853 2.45683 -1.59586
lowerneck -10.5496 -0.692976 4.62195
upperneck 9.11136 -1.35673 -2.65576
head 4.40173 -0.674753 -1.66131
rclavicle -2.45188e-014 -8.69683e-015
rhumerus -34.5214 7.31379 -78.8511
rradius 48.1466
rwrist 31.6418
rhand -32.0483 -19.5585
rfingers 7.12502
rthumb -5.29538 -49.4724
lclavicle -2.45188e-014 -8.69683e-015
lhumerus -41.2007 -16.7498 88.8586
lradius 61.7647
lwrist 17.2742
lhand -17.539 5.80489
lfingers 7.12502
lthumb 8.71524 35.605
rfemur -3.33757 -17.1616 30.099
rtibia 28.4858
rfoot -16.6707 -14.2964
rtoes -32.8713
lfemur -63.4527 40.9955 -30.1687
ltibia 50.8602
lfoot -25.2135 34.0643
ltoes 31.0611
243
root 25.0291 16.2901 13.3797 -166.141 -7.1563 -168.061
lowerback -0.950159 3.99242 7.90998
upperback -1.28607 5.07234 2.73707
thorax -0.353043 2.3862 -1.52997
lowerneck -10.3373 -0.788868 4.71058
upperneck 9.2914 -1.48027 -2.76826
head 4.41568 -0.738585 -1.71861
rclavicle -4.85718e-014 -7.00716e-015
rhumerus -35.5404 6.10524 -78.9714
rradius 49.0522
rwrist 30.8497
rhand -32.416 -19.5176
rfingers 7.12502
rthumb -5.65039 -49.4223
lclavicle -4.85718e-014 -7.00716e-015
lhumerus -41.0719 -16.3151 88.2888
lradius 61.6738
lwrist 17.3607
lhand -17.3806 5.6787
lfingers 7.12502
lthumb 8.86808 35.4724
rfemur -2.8624 -17.1267 30.0106
rtibia 28.8787
rfoot -15.5099 -13.8334
rtoes -34.6845
lfemur -63.41 40.947 -31.3991
ltibia 50.505
lfoot -24.8656 33.1734
ltoes 30.4898
244
root 24.9984 16.3042 13.313 -166.629 -9.80724 -168.344
lowerback -1.34929 3.90269 7.71244
upperback -1.40508 4.9305 2.67045
thorax -0.275533 2.32186 -1.4711
lowerneck -10.1919 -0.909815 4.75498
upperneck 9.5364 -1.63611 -2.8631
head 4.45958 -0.818858 -1.76655
rclavicle 3.38866e-014 4.47266e-016
rhumerus -36.5867 4.84046 -79.0267
rradius 49.9745
rwrist 29.9791
rhand -32.7682 -19.4725
rfingers 7.12502
rthumb -5.99045 -49.3678
lclavicle 3.38866e-014 4.47266e-016
lhumerus -40.9035 -15.8789 87.7705
lradius 61.5484
lwrist 17.4391
lhand -17.111 5.5395
lfingers 7.12502
lthumb 9.12823 35.322
rfemur -2.57643 -17.0505 29.8608
rtibia 29.5908
rfoot -14.1066 -13.0855
rtoes -36.3675
lfemur -63.1771 40.7462 -32.4788
ltibia 50.0664
lfoot -24.3106 31.9463
ltoes 29.8516
